<svg width="512" height="512" viewBox="0 0 512 512" fill="none" xmlns="http://www.w3.org/2000/svg">
  <!-- Logo InkFlow : Goutte avec éclair intégré et lignes ondulées à droite -->
  <!-- Tout en trait continu jaune épais -->
  
  <!-- Forme principale : Goutte pointant vers le haut, fond arrondi -->
  <!-- Côté gauche : ligne courbe lisse -->
  <path d="M180 420C180 420 160 360 160 280C160 200 180 140 200 100C220 80 240 60 256 60" 
        stroke="#FBBF24" 
        stroke-width="32" 
        stroke-linecap="round" 
        stroke-linejoin="round" 
        fill="none"/>
  
  <!-- Éclair intégré dans la partie gauche, pointant vers le haut-droite -->
  <path d="M200 200L220 240L180 240L200 280" 
        stroke="#FBBF24" 
        stroke-width="28" 
        stroke-linecap="round" 
        stroke-linejoin="round" 
        fill="none"/>
  
  <!-- Lignes ondulées parallèles formant le côté droit -->
  <!-- Ligne ondulée supérieure -->
  <path d="M256 60C256 60 320 80 340 120C360 160 380 200 360 240C340 280 320 320 340 360C360 400 380 420 340 420" 
        stroke="#FBBF24" 
        stroke-width="28" 
        stroke-linecap="round" 
        stroke-linejoin="round" 
        fill="none"/>
  
  <!-- Ligne ondulée inférieure (parallèle) -->
  <path d="M256 80C256 80 310 100 330 140C350 180 370 220 350 260C330 300 310 340 330 380C350 420 370 420 330 420" 
        stroke="#FBBF24" 
        stroke-width="28" 
        stroke-linecap="round" 
        stroke-linejoin="round" 
        fill="none"/>
</svg>
